<?xml version="1.0" encoding="UTF-8"?>
<svg version="1.1" xmlns="http://www.w3.org/2000/svg" width="467" height="467">
<path d="M0 0 C154.11 0 308.22 0 467 0 C467 154.11 467 308.22 467 467 C312.89 467 158.78 467 0 467 C0 312.89 0 158.78 0 0 Z " fill="#EEEEEE" transform="translate(0,0)"/>
<path d="M0 0 C154.11 0 308.22 0 467 0 C467 154.11 467 308.22 467 467 C312.89 467 158.78 467 0 467 C0 312.89 0 158.78 0 0 Z M192.12475586 9.6287384 C190.02097821 9.99633445 187.91461044 10.32634811 185.80273438 10.64379883 C166.31365877 13.62635596 147.6083318 21.36231569 130 30 C129.31615234 30.33499512 128.63230469 30.66999023 127.92773438 31.01513672 C111.59852727 39.12724776 96.85588142 49.5251824 83.40625 61.8125 C81.2790901 63.74628173 79.11996214 65.62931817 76.9375 67.5 C68.75861311 74.66063189 61.77020507 82.51289041 55 91 C54.36578125 91.74378906 53.7315625 92.48757812 53.078125 93.25390625 C24.22881783 127.52736001 7.04394562 175.72257158 6.796875 220.35546875 C6.78986069 221.21161774 6.78284637 222.06776672 6.77561951 222.94985962 C6.75822798 225.69579401 6.75176772 228.44151256 6.75 231.1875 C6.74932526 232.12685394 6.74865051 233.06620789 6.74795532 234.0340271 C6.76414651 248.22129042 7.21202731 262.0462936 10 276 C10.24145752 277.26070313 10.24145752 277.26070313 10.48779297 278.546875 C12.66649948 289.59737487 15.92060705 300.22413884 19.5625 310.875 C19.93842285 311.97497314 20.3143457 313.07494629 20.70166016 314.20825195 C22.69570357 319.85891506 24.89782234 324.88107185 28 330 C28.8359375 332.1171875 28.8359375 332.1171875 29.375 333.875 C30.77748277 337.77820602 32.78026301 340.88059189 35.1484375 344.26953125 C36.57200629 346.36884472 37.91380029 348.46938063 39.2265625 350.63671875 C60.63634466 385.97152725 91.20122347 415.11407663 127.75 434.375 C128.69617188 434.87515625 129.64234375 435.3753125 130.6171875 435.890625 C136.15918688 438.74652997 141.70594173 441.10188634 147.59326172 443.15087891 C150.3609743 444.12735531 153.01521345 445.28867256 155.6875 446.5 C161.76345729 449.08128905 167.92640519 450.62330971 174.3359375 452.10546875 C178 453 178 453 181.203125 454.10546875 C184.9924528 455.31741856 188.04545302 455.13636369 192 455 C192 455.66 192 456.32 192 457 C193.91571922 457.31825658 195.83265417 457.62919439 197.75 457.9375 C198.81734375 458.11152344 199.8846875 458.28554688 200.984375 458.46484375 C211.44704571 459.95599321 221.9448418 460.23938223 232.5 460.25 C233.55463943 460.25151062 233.55463943 460.25151062 234.63058472 460.25305176 C245.43306537 460.24264607 255.84472658 459.54322106 266.46337891 457.48388672 C269.41108555 456.92158118 272.36595284 456.41390769 275.32421875 455.91015625 C280.88685 454.96229026 286.44466163 453.9896486 292 453 C292 452.34 292 451.68 292 451 C293.15757812 450.88140625 294.31515625 450.7628125 295.5078125 450.640625 C299.79480009 450.10121521 303.7676601 449.06721096 307.875 447.75 C308.56972412 447.53037598 309.26444824 447.31075195 309.98022461 447.08447266 C314.77670491 445.51888901 319.2560601 443.63613594 323.69140625 441.2109375 C326 440 326 440 329.171875 438.67578125 C345.73889238 431.68057177 361.23252933 421.46260263 375 410 C375.99644531 409.18917969 376.99289062 408.37835938 378.01953125 407.54296875 C390.23662609 397.51116682 401.30587653 386.50452991 411 374 C411.77472656 373.04222656 412.54945313 372.08445312 413.34765625 371.09765625 C425.61391694 355.68221294 435.0867073 339.01184615 443 321 C443.45995361 319.95585938 443.45995361 319.95585938 443.92919922 318.890625 C449.44958103 306.17817409 453.24603626 293.01904526 456.1875 279.5 C456.34234863 278.80229492 456.49719727 278.10458984 456.65673828 277.38574219 C459.71152819 262.63366642 460.37446696 247.8918929 460.3125 232.875 C460.31026428 231.52970215 460.31026428 231.52970215 460.3079834 230.15722656 C460.26652887 216.25325426 459.6733504 202.68092157 457 189 C456.86609863 188.27699707 456.73219727 187.55399414 456.59423828 186.80908203 C446.32401559 132.81883254 413.41054905 83.09311941 369 51 C368.02804687 50.2678125 367.05609375 49.535625 366.0546875 48.78125 C356.79060659 40.95984797 356.79060659 40.95984797 346 37 C346 36.34 346 35.68 346 35 C343.8137775 33.89324381 341.62609052 32.78955622 339.4375 31.6875 C338.82841797 31.37876953 338.21933594 31.07003906 337.59179688 30.75195312 C333.45568716 28.67295618 329.27364806 26.78549936 325 25 C323.87722656 24.52820313 322.75445312 24.05640625 321.59765625 23.5703125 C308.97313554 18.40890624 296.28033475 14.41273914 283 11.3125 C282.14720459 11.11003662 281.29440918 10.90757324 280.41577148 10.69897461 C265.70674025 7.38968399 251.25856378 6.65110635 236.23828125 6.68432617 C233.26785337 6.68748104 230.29843043 6.66394794 227.328125 6.63867188 C215.35856879 6.59993043 203.90870926 7.53010354 192.12475586 9.6287384 Z " fill="#EFEFEF" transform="translate(0,0)"/>
<path d="M0 0 C2.92405951 0.01608635 5.84673368 0.00003788 8.77075195 -0.01904297 C25.90951862 -0.03924975 42.64148774 1.82747396 59.24145508 6.20361328 C60.73539795 6.58827759 60.73539795 6.58827759 62.25952148 6.98071289 C73.88187986 10.0465561 85.22333101 13.65340825 95.87036133 19.30908203 C97.88387274 20.33623242 99.86314288 21.13672143 101.99145508 21.89111328 C106.8678518 23.61983589 111.40533 26.01347057 115.99145508 28.39111328 C115.99145508 29.05111328 115.99145508 29.71111328 115.99145508 30.39111328 C116.66305664 30.63087891 117.3346582 30.87064453 118.02661133 31.11767578 C129.78369669 36.1674911 139.90341401 44.3683592 149.3125 52.88427734 C151.1287615 54.51434364 152.97537833 56.10587123 154.82348633 57.69970703 C195.9352013 93.6589502 221.14195357 141.46173623 228.99145508 195.39111328 C229.09603027 196.108396 229.20060547 196.82567871 229.30834961 197.56469727 C230.41850985 206.67734532 230.23539737 215.91329946 230.24145508 225.07861328 C230.24212982 225.99395844 230.24280457 226.90930359 230.24349976 227.85238647 C230.20367391 261.87370745 223.5228819 294.90224715 207.99145508 325.39111328 C207.6969043 325.98520996 207.40235352 326.57930664 207.09887695 327.19140625 C199.53446453 342.42234249 190.07717435 356.50252618 178.99145508 369.39111328 C178.16387695 370.40173828 177.33629883 371.41236328 176.48364258 372.45361328 C166.48938017 384.63314009 155.52411652 395.80831637 142.99145508 405.39111328 C142.46567871 405.80393555 141.93990234 406.21675781 141.39819336 406.64208984 C131.29306575 414.55860327 120.50249486 420.93536675 109.27099609 427.12329102 C107.25157372 428.24644196 105.25936659 429.40547751 103.26879883 430.57861328 C100.08196161 432.34105961 96.96508806 433.68852969 93.55395508 434.95361328 C92.42086914 435.37642578 91.2877832 435.79923828 90.12036133 436.23486328 C89.08782227 436.61642578 88.0552832 436.99798828 86.99145508 437.39111328 C85.65810898 437.91191393 84.32477342 438.43274157 82.99145508 438.95361328 C68.36645508 444.39111328 68.36645508 444.39111328 61.99145508 444.39111328 C61.99145508 445.05111328 61.99145508 445.71111328 61.99145508 446.39111328 C53.00196751 448.11758423 44.00168079 449.77651746 34.99145508 451.39111328 C34.22140137 451.53403809 33.45134766 451.67696289 32.65795898 451.82421875 C12.32500164 455.51398321 -10.65785636 454.50624661 -31.00854492 451.39111328 C-32.32995341 451.20087409 -33.65156348 451.01202892 -34.97338867 450.82470703 C-35.97499023 450.68162109 -36.9765918 450.53853516 -38.00854492 450.39111328 C-38.00854492 449.73111328 -38.00854492 449.07111328 -38.00854492 448.39111328 C-39.16354492 448.44009766 -40.31854492 448.48908203 -41.50854492 448.53955078 C-46.02817309 448.53756151 -49.76910298 447.48998177 -54.00854492 446.01611328 C-55.34109419 445.56846001 -56.67443072 445.12314339 -58.00854492 444.68017578 C-58.99189819 444.35243164 -58.99189819 444.35243164 -59.99511719 444.01806641 C-62.05735649 443.37591404 -64.12413724 442.84355519 -66.22338867 442.33642578 C-69.16831487 441.60095402 -71.7879595 440.80970164 -74.57104492 439.64111328 C-77.47257525 438.43287725 -80.37070507 437.25498216 -83.31323242 436.14892578 C-106.88872749 427.17502766 -128.08751419 413.68801724 -146.61401367 396.59814453 C-148.22221282 395.11587289 -149.85038074 393.65500253 -151.49682617 392.21533203 C-170.62530804 375.4667546 -185.32790337 354.27882131 -198.00854492 332.39111328 C-198.76651367 331.16908203 -198.76651367 331.16908203 -199.53979492 329.92236328 C-200.91765379 327.54775545 -201.96093358 325.26152041 -202.94604492 322.70361328 C-203.24381836 321.93662109 -203.5415918 321.16962891 -203.84838867 320.37939453 C-204.23124023 319.39326172 -204.6140918 318.40712891 -205.00854492 317.39111328 C-205.646551 315.81558647 -206.28457351 314.24006632 -206.92260742 312.66455078 C-211.87604603 300.27693641 -215.95073466 287.67550498 -218.82104492 274.64111328 C-219.01561279 273.7688208 -219.21018066 272.89652832 -219.41064453 271.99780273 C-222.62277691 256.63807251 -223.38544087 241.41062411 -223.32104492 225.76611328 C-223.31922211 224.84457458 -223.31739929 223.92303589 -223.31552124 222.97357178 C-223.10818743 160.62620101 -198.26296823 106.77029084 -155.13354492 62.32861328 C-151.17997725 58.42239373 -146.91825822 54.94508901 -142.58276367 51.47314453 C-140.57590022 49.84999094 -138.66295724 48.19157311 -136.75854492 46.45361328 C-110.67252451 24.02335345 -73.68133895 8.52207158 -40.00854492 3.39111328 C-38.60507723 3.14597477 -37.20194026 2.8989381 -35.79907227 2.65039062 C-23.81853018 0.60094062 -12.14541119 -0.07908357 0 0 Z M-47.00854492 25.39111328 C-47.00854492 26.05111328 -47.00854492 26.71111328 -47.00854492 27.39111328 C-48.90926758 27.28283203 -48.90926758 27.28283203 -50.84838867 27.17236328 C-56.56572003 27.18129836 -61.28145658 28.85647633 -66.57104492 30.89111328 C-67.53051025 31.25060059 -68.48997559 31.61008789 -69.47851562 31.98046875 C-77.96654997 35.23132575 -86.01074183 39.0908322 -94.00854492 43.39111328 C-94.99983398 43.90416016 -95.99112305 44.41720703 -97.01245117 44.94580078 C-104.00191517 48.62446604 -110.53795534 52.86838852 -117.00854492 57.39111328 C-117.9650293 58.05755859 -118.92151367 58.72400391 -119.90698242 59.41064453 C-127.98939262 65.25034841 -135.18110512 71.8869588 -142.35180664 78.79736328 C-143.74914084 80.1415716 -145.16049875 81.47117958 -146.57495117 82.79736328 C-162.30661718 97.88175144 -174.06512892 117.16079891 -184.00854492 136.39111328 C-184.3345166 137.02001465 -184.66048828 137.64891602 -184.99633789 138.296875 C-207.80927113 183.423366 -209.29357242 241.66170831 -193.84613037 289.18692017 C-190.04064236 300.62642936 -185.76964259 311.78928181 -180.00854492 322.39111328 C-179.46858887 323.39875732 -179.46858887 323.39875732 -178.91772461 324.42675781 C-169.17165064 342.38953472 -156.87455859 358.26775572 -142.55932617 372.80517578 C-141.31064419 374.08216541 -140.09201913 375.388509 -138.88354492 376.70361328 C-130.09469464 386.12023859 -118.88356751 393.69651932 -108.13354492 400.70361328 C-107.55717285 401.08251709 -106.98080078 401.4614209 -106.38696289 401.85180664 C-103.67980937 403.56834915 -102.28266901 404.39111328 -99.00854492 404.39111328 C-99.00854492 405.05111328 -99.00854492 405.71111328 -99.00854492 406.39111328 C-61.17117453 425.16494741 -24.32117643 433.83429958 17.99145508 432.39111328 C19.01223145 432.36307617 20.03300781 432.33503906 21.0847168 432.30615234 C67.30615534 430.74749441 112.993448 406.75784872 145.99145508 375.39111328 C146.52851074 374.88273926 147.06556641 374.37436523 147.61889648 373.85058594 C164.76703036 357.50810332 177.99784166 338.31508919 188.99145508 317.39111328 C189.33950195 316.72917969 189.68754883 316.06724609 190.04614258 315.38525391 C212.94434029 271.09531886 216.75405764 214.7885262 202.62353516 167.13574219 C194.01712658 140.13205194 180.77792083 114.71717059 161.99145508 93.39111328 C160.76749023 91.98539063 160.76749023 91.98539063 159.51879883 90.55126953 C148.80704759 78.54590474 137.13054689 67.32899484 123.67895508 58.45361328 C123.01613525 58.01484863 122.35331543 57.57608398 121.67041016 57.12402344 C119.77997504 55.87578468 117.88654478 54.63227097 115.99145508 53.39111328 C115.10458008 52.80974609 114.21770508 52.22837891 113.30395508 51.62939453 C109.91839549 49.2249599 109.91839549 49.2249599 105.99145508 48.39111328 C105.99145508 47.73111328 105.99145508 47.07111328 105.99145508 46.39111328 C85.36766063 35.70449031 64.8584704 27.79568184 41.99145508 23.39111328 C40.05882812 23.00741577 40.05882812 23.00741577 38.0871582 22.6159668 C26.48837853 20.42641913 15.21411451 19.87612351 3.42895508 19.95361328 C2.51845398 19.95499298 1.60795288 19.95637268 0.66986084 19.95779419 C-15.58104959 20.00318183 -31.20807937 21.37059878 -47.00854492 25.39111328 Z " fill="#05203E" transform="translate(230.008544921875,6.60888671875)"/>
<path d="M0 0 C7.55394941 0.89623129 7.55394941 0.89623129 10.25 1.5234375 C13.93812776 2.16257328 17.58126872 2.1906925 21.3125 2.1875 C22.48498291 2.1884668 22.48498291 2.1884668 23.68115234 2.18945312 C31.54847358 2.11973265 39.2323525 1.18525411 47 0 C43.8485934 3.21297937 40.61546311 6.21206204 37.1875 9.125 C28.12258398 17.27126581 21.54070719 26.96759427 19 39 C18.65613101 45.76177584 18.65613101 45.76177584 21 52 C25.97361492 56.6420406 31.87004896 56.40850001 38.37890625 56.3359375 C56.69082495 54.63709715 78.52278477 41.05785001 92.4375 29.375 C95.78078528 26.81621368 98.50501431 26.04190176 102.71875 26.359375 C107.33916423 27.65688858 110.52871739 30.81506898 114 34 C114.82757813 34.73347656 115.65515625 35.46695313 116.5078125 36.22265625 C118.21727688 37.74653658 119.91778887 39.28051668 121.609375 40.82421875 C123.65332803 42.68448319 125.72083235 44.50645923 127.8125 46.3125 C133.06811047 50.89539233 138.16313293 55.65256509 143.27001953 60.39941406 C144.88946884 61.89773606 146.51902508 63.3840181 148.15234375 64.8671875 C158.68668257 74.49723733 168.7063475 84.64304256 178.74609375 94.78295898 C184.14733252 100.22775721 189.51463518 105.62780089 195.36499023 110.59643555 C199.84524157 114.44248078 203.88696795 118.77119372 208 123 C208.75667969 123.75023437 209.51335937 124.50046875 210.29296875 125.2734375 C214.8818309 130.05464716 214.8818309 130.05464716 215.375 134 C212.41141053 140.46601339 207.29244351 145.71698599 201 149 C198.125 149.25 198.125 149.25 196 149 C196 148.34 196 147.68 196 147 C195.46117187 146.93296875 194.92234375 146.8659375 194.3671875 146.796875 C191.03210339 145.67417342 188.73103755 143.53097322 186.125 141.25 C185.27832764 140.52224365 185.27832764 140.52224365 184.41455078 139.77978516 C179.52722913 135.54356829 174.8075834 131.13285232 170.09667969 126.70263672 C165.79204401 122.67498456 161.31828792 118.93020105 156.71484375 115.24609375 C153.68818227 112.7420213 150.8123395 110.11241829 147.9375 107.4375 C144.21735189 104.00337875 140.48579735 100.58867886 136.625 97.3125 C135.87476563 96.66925781 135.12453125 96.02601563 134.3515625 95.36328125 C131.40832759 93.65698726 129.34635333 93.74444276 126 94 C125.67 95.65 125.34 97.3 125 99 C134.66757641 107.34789996 134.66757641 107.34789996 144.5 115.5 C154.32873109 123.50113395 163.87456249 131.75684293 173.07006836 140.47973633 C176.35397419 143.56922817 179.6915347 146.32045266 183.375 148.9375 C186.87504789 151.60015326 186.87504789 151.60015326 187.9375 155 C186.59848468 159.28484904 184.1588985 161.88824924 181 165 C180.071875 165.9590625 180.071875 165.9590625 179.125 166.9375 C175.54175309 168.72912346 172.80246953 169.02490806 169 168 C164.35639186 165.40778502 160.19581581 162.24562131 156 159 C155.42411133 158.56155762 154.84822266 158.12311523 154.25488281 157.67138672 C147.29657257 152.36805747 140.55775664 146.82910997 133.91210938 141.14086914 C128.75659999 136.74625377 123.44002932 132.56907154 118.09375 128.41015625 C117.0728125 127.61480469 116.051875 126.81945312 115 126 C114.0409375 125.27683594 113.081875 124.55367188 112.09375 123.80859375 C111.4028125 123.21175781 110.711875 122.61492187 110 122 C110 121.34 110 120.68 110 120 C107.69 120.99 105.38 121.98 103 123 C103.05553569 125.72629748 103.50852881 127.47415174 105.38916016 129.48632812 C107.31963258 131.13875765 109.29616515 132.70345511 111.3125 134.25 C112.03872559 134.82282715 112.76495117 135.3956543 113.51318359 135.98583984 C118.6179054 139.99340057 123.79887355 143.90007809 129.01171875 147.765625 C134.76287915 152.06583905 140.39423898 156.51264849 146 161 C146.62245605 161.49387207 147.24491211 161.98774414 147.88623047 162.49658203 C149.72693497 163.9637276 151.55262467 165.44767859 153.375 166.9375 C153.94081787 167.38593262 154.50663574 167.83436523 155.08959961 168.29638672 C156.6484375 169.58984375 156.6484375 169.58984375 159 172 C159 173.32 159 174.64 159 176 C157.25197854 176.81674796 155.50149811 177.62823451 153.75 178.4375 C152.28820312 179.11619141 152.28820312 179.11619141 150.796875 179.80859375 C145.65690517 181.99810604 140.54812943 183.07734903 135 182 C131.31524622 180.00607275 128.21146054 177.42541405 125 174.75 C123.15833611 173.27863508 121.31455493 171.8099167 119.46875 170.34375 C118.55480469 169.61027344 117.64085937 168.87679687 116.69921875 168.12109375 C112.73893859 165.00903568 108.63977711 162.11670406 104.5 159.25 C100.22063676 156.2853567 96.02377277 153.31187451 92 150 C90.02 150.99 90.02 150.99 88 152 C87.29141011 154.73690261 87.29141011 154.73690261 88 158 C90.49004791 160.51182676 93.44624056 162.26188911 96.4375 164.125 C98.17521946 165.26058674 99.91218213 166.39733227 101.6484375 167.53515625 C102.5362793 168.10766113 103.42412109 168.68016602 104.33886719 169.27001953 C108.46917297 171.95509722 112.52207746 174.7446229 116.5625 177.5625 C117.28171631 178.05057129 118.00093262 178.53864258 118.74194336 179.04150391 C119.40589111 179.50347168 120.06983887 179.96543945 120.75390625 180.44140625 C121.62511108 181.03997437 121.62511108 181.03997437 122.51391602 181.65063477 C124.27299023 183.24787531 125.06211061 184.83495488 126 187 C120.04195179 190.9438617 115.20735197 193.33558609 108 192 C103.29455436 190.52740784 99.10492669 188.73661779 95 186 C94.078125 183.390625 94.078125 183.390625 93.25 180.25 C91.09801405 173.39310182 88.0430321 170.49428996 82.0625 166.8046875 C78.6302409 164.41640721 77.19903152 163.00370498 76.36328125 158.7890625 C76.12026115 156.33795652 75.88463218 153.88610693 75.65625 151.43359375 C74.67093603 146.2782903 71.99152237 143.26664685 68 140 C65.08289006 138.54144503 62.30692468 138.68750029 59.0625 138.5 C52.33041302 138.11013767 52.33041302 138.11013767 49 137 C48.04296875 134.70703125 48.04296875 134.70703125 47.1875 131.8125 C45.69964712 127.58038515 44.43372624 123.99081632 41.046875 120.953125 C35.69392298 118.46052902 28.47608295 119.17463902 23 121 C22.67386719 120.44570313 22.34773438 119.89140625 22.01171875 119.3203125 C21.57472656 118.59585938 21.13773438 117.87140625 20.6875 117.125 C20.04361328 116.04605469 20.04361328 116.04605469 19.38671875 114.9453125 C17.98247625 112.73153667 17.98247625 112.73153667 15 111 C15 110.34 15 109.68 15 109 C6.79710183 107.60376201 -0.48498702 106.74621907 -8 111 C-10.10970668 112.91040259 -12.03143084 114.93986948 -14 117 C-14.66 117 -15.32 117 -16 117 C-17.28564674 115.31240393 -18.50372181 113.57305027 -19.6875 111.8125 C-23.6911903 106.15637752 -27.2765485 102.2411505 -34 100 C-33.45442834 94.60923237 -32.49848007 89.89528222 -30.7421875 84.73828125 C-30.51844955 84.07396088 -30.29471161 83.4096405 -30.06419373 82.72518921 C-29.34165525 80.585109 -28.60858764 78.44881507 -27.875 76.3125 C-27.36934508 74.82355796 -26.86438615 73.33437939 -26.36010742 71.8449707 C-25.60641827 69.62004684 -24.85194984 67.39541206 -24.09422302 65.17185974 C-22.6997268 61.07917979 -21.32952486 56.98029344 -19.99609375 52.8671875 C-15.62432017 39.38929936 -10.68526899 26.16594098 -4.87109375 13.23828125 C-3.49966594 10.17768426 -2.26599668 7.13788955 -1.25 3.9375 C-1.00765625 3.18339844 -0.7653125 2.42929688 -0.515625 1.65234375 C-0.34546875 1.10707031 -0.1753125 0.56179687 0 0 Z " fill="#031F3D" transform="translate(132,159)"/>
<path d="M0 0 C6.74507089 2.76082356 13.55339668 4.98411891 20.55859375 6.99609375 C21.25629883 7.19879883 21.95400391 7.40150391 22.67285156 7.61035156 C32.70802784 10.49694308 42.56066956 12.72628663 52.97290039 13.74438477 C53.76172607 13.83776123 54.55055176 13.9311377 55.36328125 14.02734375 C56.05405762 14.09501953 56.74483398 14.16269531 57.45654297 14.23242188 C60.83929974 15.4613723 62.30440255 17.18274747 64.55859375 19.99609375 C66.11866137 23.36318932 67.22759056 26.8395949 68.34375 30.375 C68.68196777 31.40353088 69.02018555 32.43206177 69.36865234 33.49176025 C70.4671201 36.84289109 71.54434636 40.20042768 72.62109375 43.55859375 C73.37220872 45.86658819 74.12474028 48.17412208 74.87866211 50.48120117 C76.01720367 53.9676725 77.15409421 57.45462075 78.28468323 60.94367981 C80.58340602 68.03712276 82.93141251 75.11105424 85.33984375 82.16796875 C85.90488458 83.82999061 86.469908 85.49201839 87.03491211 87.15405273 C87.81938356 89.4600751 88.60610571 91.7651746 89.40090942 94.06765747 C90.11925751 96.15178321 90.82643095 98.23939259 91.53125 100.328125 C92.12305054 102.05639526 92.12305054 102.05639526 92.72680664 103.81958008 C93.57945674 107.07576746 93.89136582 109.64900856 93.55859375 112.99609375 C91.22265625 115.55078125 91.22265625 115.55078125 88.18359375 117.87109375 C87.18585938 118.65226562 86.188125 119.4334375 85.16015625 120.23828125 C82.55859375 121.99609375 82.55859375 121.99609375 80.55859375 121.99609375 C80.22859375 122.98609375 79.89859375 123.97609375 79.55859375 124.99609375 C77.74609375 127.24609375 77.74609375 127.24609375 75.55859375 128.99609375 C71.52667369 128.74930691 69.56569134 126.33505659 66.85546875 123.55078125 C65.95699219 122.638125 65.05851563 121.72546875 64.1328125 120.78515625 C63.19095322 119.81424135 62.24954939 118.84288443 61.30859375 117.87109375 C55.82163288 112.25293973 50.37785175 106.68704235 44.40429688 101.58349609 C41.32859107 98.93822637 38.388552 96.14961264 35.43359375 93.37109375 C34.12772161 92.14831207 32.82172905 90.92565897 31.515625 89.703125 C30.53263428 88.78200928 30.53263428 88.78200928 29.52978516 87.84228516 C18.69645919 77.66085192 18.69645919 77.66085192 7.58984375 67.78125 C5.51161567 65.95480724 3.47629832 64.08574217 1.44555664 62.20678711 C-17.14553809 42.93076188 -17.14553809 42.93076188 -39.75390625 31.55859375 C-48.01495874 32.53871862 -54.62111356 38.0642928 -61.19140625 42.80859375 C-72.13321916 50.57171796 -82.80085937 57.26916656 -95.44140625 61.99609375 C-96.41980469 62.36347656 -97.39820313 62.73085937 -98.40625 63.109375 C-101.59775375 64.04177056 -104.30967593 64.32902492 -107.62890625 64.37109375 C-108.65371094 64.39945312 -109.67851562 64.4278125 -110.734375 64.45703125 C-113.44140625 63.99609375 -113.44140625 63.99609375 -115.296875 62.25 C-117.4166385 58.07558519 -116.58448684 54.41362395 -115.44140625 49.99609375 C-105.55071495 25.57844961 -81.4436513 6.07830646 -58.55078125 -5.4609375 C-40.11516981 -12.91419184 -17.51219638 -7.20101515 0 0 Z " fill="#031F3E" transform="translate(273.44140625,146.00390625)"/>
<path d="M0 0 C0.71144104 1.68249512 0.71144104 1.68249512 1.36938477 3.90429688 C1.74651108 5.15769615 1.74651108 5.15769615 2.1312561 6.43641663 C2.39860565 7.35458664 2.6659552 8.27275665 2.94140625 9.21875 C3.22503021 10.17136215 3.50865417 11.1239743 3.8008728 12.10545349 C4.72962579 15.23460624 5.64641734 18.36711656 6.5625 21.5 C7.19902742 23.65706291 7.83582891 25.81404497 8.47290039 27.97094727 C12.47678913 41.57321256 16.33057794 55.21062088 20.00244141 68.90600586 C22.47482904 78.12494913 25.07583927 87.29775447 27.79467773 96.44702148 C32.7479853 113.15321847 32.7479853 113.15321847 32 117 C25.341564 123.86651212 16.73731576 126.138612 7.5 126.375 C6.1903125 126.42398438 4.880625 126.47296875 3.53125 126.5234375 C0 126 0 126 -1.97436523 124.19750977 C-4.93057183 119.53107156 -6.33030724 114.57566765 -7.94140625 109.31640625 C-8.30583328 108.16053513 -8.67026031 107.004664 -9.04573059 105.81376648 C-10.02485157 102.70641896 -10.99515044 99.59647196 -11.96263885 96.48548889 C-13.7582548 90.72924089 -15.58942254 84.98413215 -17.41796875 79.23828125 C-18.01294159 77.36709122 -18.01294159 77.36709122 -18.61993408 75.45809937 C-22.35941331 63.75918242 -26.46903919 52.24368666 -30.8359375 40.765625 C-38.62891976 20.24862575 -38.62891976 20.24862575 -36.2421875 14.0234375 C-30.55913923 4.76614503 -10.42092578 -5.21046289 0 0 Z " fill="#04203D" transform="translate(379,138)"/>
<path d="M0 0 C10.25169496 -1.19205755 19.85911237 4.39796907 27.87890625 10.25390625 C28.57886719 10.83011719 29.27882812 11.40632812 30 12 C31.12728516 12.78697266 31.12728516 12.78697266 32.27734375 13.58984375 C35.11427136 17.55896923 34.65487791 21.28769238 34 26 C32.81918509 30.72762762 31.2498737 35.28353705 29.625 39.875 C29.16813806 41.19850275 28.71243012 42.52240435 28.2578125 43.84667969 C27.08608122 47.24546824 25.89473686 50.63699782 24.69641113 54.02648926 C23.60973588 57.10594217 22.53704671 60.1902791 21.4609375 63.2734375 C17.00814962 75.94208149 12.30448266 88.4964138 7.41601562 101.00292969 C4.57665666 108.32464747 2.0945041 115.66923567 -0.0625 123.21875 C-1 126 -1 126 -3 128 C-6.66270223 128.36940074 -10.32546976 128.14151577 -14 128 C-15.19302734 127.99033203 -15.19302734 127.99033203 -16.41015625 127.98046875 C-22.53642164 127.68874183 -27.64850656 125.39034606 -32 121 C-33.71883583 116.16787644 -32.27999878 112.09461858 -30.97265625 107.34375 C-30.63710976 106.07474602 -30.63710976 106.07474602 -30.29478455 104.78010559 C-29.56124443 102.01713019 -28.81217937 99.25863593 -28.0625 96.5 C-27.54802688 94.57728127 -27.03436093 92.65434639 -26.52148438 90.73120117 C-25.02914857 85.15007705 -23.51636413 79.57463447 -22 74 C-21.62206123 72.60502702 -21.24427733 71.21001205 -20.86669922 69.81494141 C-18.98134463 62.86437227 -17.06059366 55.92437063 -15.11572266 48.99023438 C-14.03875518 45.1462209 -12.97503836 41.29858664 -11.91134644 37.45088196 C-10.92041246 33.87139281 -9.92379719 30.29350033 -8.92602539 26.71591187 C-8.43833799 24.96372357 -7.95262144 23.2109854 -7.46899414 21.45767212 C-6.79116418 19.00266189 -6.10548096 16.54996996 -5.41796875 14.09765625 C-5.21825974 13.36770447 -5.01855072 12.63775269 -4.81278992 11.88568115 C-3.61624839 7.65362834 -2.09186634 3.86758637 0 0 Z " fill="#031F3D" transform="translate(88,136)"/>
<path d="M0 0 C0.9384375 -0.00515625 1.876875 -0.0103125 2.84375 -0.015625 C6.60787958 0.36078796 8.57974556 1.31517139 11.2265625 4.00390625 C12.85726046 6.88013731 12.89991426 8.89466511 12.875 12.1875 C12.88660156 13.71697266 12.88660156 13.71697266 12.8984375 15.27734375 C12.44300699 18.67521258 11.39724199 20.42203552 9.5 23.25 C8.53831317 25.10242955 7.58003598 26.95663279 6.625 28.8125 C3.98823464 33.68592453 1.51431722 36.74284139 -3.5 39.25 C-5.20702735 39.31996014 -6.91668003 39.33440154 -8.625 39.3125 C-9.53507813 39.30347656 -10.44515625 39.29445313 -11.3828125 39.28515625 C-12.08148438 39.27355469 -12.78015625 39.26195312 -13.5 39.25 C-13.5 38.59 -13.5 37.93 -13.5 37.25 C-14.61375 37.1571875 -14.61375 37.1571875 -15.75 37.0625 C-19.47501049 35.96192872 -20.5467078 34.57783116 -22.5 31.25 C-23.17379329 25.35608182 -21.59445825 21.98209636 -18.25 17.3125 C-17.41471687 16.09206303 -16.58265036 14.86941798 -15.75390625 13.64453125 C-15.3583252 13.06268066 -14.96274414 12.48083008 -14.55517578 11.88134766 C-13.23245911 9.83637014 -12.18895778 7.71780327 -11.1875 5.5 C-8.51629219 0.35545162 -5.57636107 -0.03063935 0 0 Z " fill="#06203D" transform="translate(189.5,303.75)"/>
<path d="M0 0 C4.61960591 0.98289487 6.44316187 3.56115841 9.13671875 7.28125 C12.79146068 13.33401558 12.78547138 19.74406554 11.9375 26.625 C11.0841742 29.456975 9.80009532 31.34907594 7.9375 33.625 C7.35484375 34.42292969 6.7721875 35.22085938 6.171875 36.04296875 C1.46132273 42.0238865 1.46132273 42.0238865 -2.04296875 43.40625 C-7.28371773 43.82467307 -11.03421534 41.15540991 -15.1796875 38.23046875 C-17.51164352 36.24201663 -18.91013257 34.54159504 -19.42041016 31.47192383 C-19.57755232 24.60891058 -17.92960881 20.15102577 -14.4375 14.3125 C-14.01082031 13.54099609 -13.58414063 12.76949219 -13.14453125 11.97460938 C-9.97761815 6.46796197 -6.57520616 1.34187881 0 0 Z " fill="#07213E" transform="translate(162.0625,283.375)"/>
<path d="M0 0 C4.14306707 0.84791556 7.25997212 2.60971793 10.34765625 5.48046875 C12.65193762 9.25111099 13.34765625 11.57541212 13.34765625 15.98046875 C12.14458828 20.19120665 10.28146272 23.24505601 7.34765625 26.48046875 C4.14376072 28.08241652 0.83185468 27.83214485 -2.65234375 27.48046875 C-7.78945328 25.66737127 -10.62148605 22.98345734 -13.65234375 18.48046875 C-14.80816204 14.43510474 -14.95434667 12.31936575 -13.52734375 8.35546875 C-9.73069303 2.53393765 -7.12540407 -0.44013347 0 0 Z " fill="#09223E" transform="translate(135.65234375,273.51953125)"/>
<path d="M0 0 C4.0040458 0.49230071 6.52532775 2.5578378 9.609375 4.9765625 C10.19847656 5.40324219 10.78757813 5.82992188 11.39453125 6.26953125 C14.24494226 8.46467536 15.74727549 10.02312333 16.91796875 13.453125 C16.85094781 16.76842744 16.41791798 17.73043722 14.171875 20.1015625 C13.65238281 20.67390625 13.13289063 21.24625 12.59765625 21.8359375 C8.79379574 25.15256194 5.66085956 25.68487803 0.7578125 25.5390625 C-1.66291677 25.29997813 -3.20323779 24.84186036 -5.140625 23.3515625 C-8.21145637 18.47828664 -7.77041173 12.901095 -7.140625 7.3515625 C-5.72985247 3.9491111 -3.78371614 0.62141324 0 0 Z " fill="#07203C" transform="translate(203.140625,328.6484375)"/>
<path d="M0 0 C0.33 0 0.66 0 1 0 C4.88361029 21.24427293 4.30124337 42.49431336 4 64 C3.67 64 3.34 64 3 64 C3 50.8 3 37.6 3 24 C2.34 24 1.68 24 1 24 C-0.03387512 15.9874678 -0.10466648 8.07094823 0 0 Z " fill="#3C4757" transform="translate(456,189)"/>
<path d="M0 0 C0.33 0 0.66 0 1 0 C1.1384836 6.30729842 0.7065964 12.16622068 -0.375 18.375 C-0.50132812 19.16777344 -0.62765625 19.96054687 -0.7578125 20.77734375 C-0.88671875 21.53917969 -1.015625 22.30101562 -1.1484375 23.0859375 C-1.26364746 23.7670459 -1.37885742 24.4481543 -1.49755859 25.14990234 C-2 27 -2 27 -4 30 C-5.17306396 26.48762216 -4.84970743 23.8030715 -4.2578125 20.17578125 C-4.07863281 19.06525391 -3.89945312 17.95472656 -3.71484375 16.81054688 C-3.52019531 15.65619141 -3.32554687 14.50183594 -3.125 13.3125 C-2.93808594 12.14654297 -2.75117188 10.98058594 -2.55859375 9.77929688 C-1.13961237 1.13961237 -1.13961237 1.13961237 0 0 Z " fill="#2C384D" transform="translate(458,254)"/>
<path d="M0 0 C0.88631104 0.06566162 1.77262207 0.13132324 2.68579102 0.19897461 C12.43419125 0.88908758 22.16943472 1.28871256 31.9375 1.5625 C33.41081478 1.60586623 34.88412214 1.64948496 36.35742188 1.69335938 C39.90486777 1.79846681 43.45239986 1.90021673 47 2 C47 2.33 47 2.66 47 3 C32.81 3 18.62 3 4 3 C4 2.34 4 1.68 4 1 C2.68 0.67 1.36 0.34 0 0 Z " fill="#4C5768" transform="translate(201,437)"/>
<path d="M0 0 C7.52348993 0.89261745 7.52348993 0.89261745 10.21875 1.5 C14.06966814 2.19229989 17.90911396 2.36291362 21.8125 2.5625 C22.99489258 2.62727539 22.99489258 2.62727539 24.20117188 2.69335938 C26.13394215 2.79878321 28.06695026 2.89983094 30 3 C30 3.33 30 3.66 30 4 C9.2233848 5.89709468 9.2233848 5.89709468 1 2 C0.67 1.34 0.34 0.68 0 0 Z " fill="#384051" transform="translate(132,159)"/>
<path d="M0 0 C6.93 0 13.86 0 21 0 C21 0.66 21 1.32 21 2 C13.41 2.33 5.82 2.66 -2 3 C-1.34 2.67 -0.68 2.34 0 2 C0 1.34 0 0.68 0 0 Z " fill="#333D4F" transform="translate(224,138)"/>
<path d="M0 0 C0.33 0 0.66 0 1 0 C1.19656224 2.20754516 1.38185459 4.41609539 1.5625 6.625 C1.66691406 7.85476562 1.77132813 9.08453125 1.87890625 10.3515625 C1.99191061 13.75627462 1.69045563 16.67558398 1 20 C0.67 20 0.34 20 0 20 C-1.13495783 13.4739925 -2.12390495 6.37171484 0 0 Z " fill="#E3E6E9" transform="translate(28,240)"/>
<path d="M0 0 C0.66 0 1.32 0 2 0 C0.91264097 5.64147448 -0.24932257 10.92182628 -3 16 C-5.1875 16.9375 -5.1875 16.9375 -7 17 C-7 16.34 -7 15.68 -7 15 C-6.01 15 -5.02 15 -4 15 C-3.896875 14.195625 -3.79375 13.39125 -3.6875 12.5625 C-2.84899627 8.21752614 -1.47178341 4.16542473 0 0 Z " fill="#2B3447" transform="translate(89,247)"/>
<path d="M0 0 C1.11375 0.1546875 1.11375 0.1546875 2.25 0.3125 C1.0641763 3.68753669 -0.02573689 5.95972731 -2.75 8.3125 C-4.07 7.3225 -5.39 6.3325 -6.75 5.3125 C-3.42692308 0.38942308 -3.42692308 0.38942308 0 0 Z " fill="#D9DCDF" transform="translate(173.75,313.6875)"/>
<path d="M0 0 C-6.82037579 4.54691719 -15.23908301 2.84076601 -23 2 C-23 1.67 -23 1.34 -23 1 C-15.31395526 0.02840067 -7.74136601 -0.10920422 0 0 Z " fill="#3E495A" transform="translate(271,437)"/>
<path d="M0 0 C3.28754511 0.57889381 4.93672495 1.54828411 7.25 3.9375 C7.77078125 4.46214844 8.2915625 4.98679688 8.828125 5.52734375 C10 7 10 7 10 9 C10.99 9.33 11.98 9.66 13 10 C12.34 10.66 11.68 11.32 11 12 C9.16364422 10.19047409 7.33083792 8.37759362 5.5 6.5625 C4.97535156 6.04623047 4.45070313 5.52996094 3.91015625 4.99804688 C2.58775448 3.68423213 1.29164432 2.34406495 0 1 C0 0.67 0 0.34 0 0 Z " fill="#D4D5D9" transform="translate(304,247)"/>
<path d="M0 0 C2.64 0 5.28 0 8 0 C7.34 0.66 6.68 1.32 6 2 C7.65 2.33 9.3 2.66 11 3 C11 3.66 11 4.32 11 5 C3.5340751 5.36717663 3.5340751 5.36717663 1 3.625 C0 2 0 2 0 0 Z " fill="#D7DADD" transform="translate(154,279)"/>
<path d="M0 0 C0.33 0.66 0.66 1.32 1 2 C-6.11389522 10.81548975 -6.11389522 10.81548975 -11 12 C-7.49102731 7.81576108 -3.91939465 3.80411834 0 0 Z " fill="#DBDDE0" transform="translate(401,385)"/>
<path d="M0 0 C1.84187025 2.76280538 2.72248277 4.80707826 3.6875 7.9375 C3.95949219 8.79214844 4.23148437 9.64679688 4.51171875 10.52734375 C5.02075548 13.10510574 4.84888744 14.54449337 4 17 C4 16.01 4 15.02 4 14 C3.34 14 2.68 14 2 14 C1.66179834 12.4176994 1.32964061 10.83410625 1 9.25 C0.814375 8.36828125 0.62875 7.4865625 0.4375 6.578125 C0 4 0 4 0 0 Z " fill="#3E4759" transform="translate(387,168)"/>
<path d="M0 0 C0.66 0.33 1.32 0.66 2 1 C1.360625 1.12375 0.72125 1.2475 0.0625 1.375 C-0.618125 1.58125 -1.29875 1.7875 -2 2 C-2.33 2.66 -2.66 3.32 -3 4 C-6.28324906 6.28003407 -9.04628701 7.43518386 -13 8 C-10.61664713 5.32561064 -8.12963852 3.84841988 -4.9375 2.25 C-4.05964844 1.80140625 -3.18179688 1.3528125 -2.27734375 0.890625 C-1.52582031 0.59671875 -0.77429688 0.3028125 0 0 Z " fill="#3C4659" transform="translate(215,141)"/>
<path d="M0 0 C3.21043882 1.38188453 5.04936365 2.92421903 7.25 5.625 C8.03117187 6.57246094 8.03117187 6.57246094 8.828125 7.5390625 C9.40820312 8.26222656 9.40820312 8.26222656 10 9 C7 9 7 9 5.17578125 7.5390625 C4.56089844 6.90742188 3.94601563 6.27578125 3.3125 5.625 C2.68988281 4.99851562 2.06726563 4.37203125 1.42578125 3.7265625 C0 2 0 2 0 0 Z " fill="#222E45" transform="translate(68,387)"/>
<path d="M0 0 C0.33 0 0.66 0 1 0 C1.10251672 5.12583611 1.03590199 9.94997778 0 15 C-2 13 -2 13 -2.01171875 10.72265625 C-1.90472656 9.84480469 -1.79773438 8.96695313 -1.6875 8.0625 C-1.58824219 7.18722656 -1.48898438 6.31195313 -1.38671875 5.41015625 C-1 3 -1 3 0 0 Z " fill="#2B364B" transform="translate(30,184)"/>
<path d="M0 0 C2.97 0 5.94 0 9 0 C7.68 0.33 6.36 0.66 5 1 C5 1.66 5 2.32 5 3 C3.75 4.6875 3.75 4.6875 2 6 C-0.1875 5.6875 -0.1875 5.6875 -2 5 C-1.01 4.67 -0.02 4.34 1 4 C0.67 2.68 0.34 1.36 0 0 Z " fill="#D1D5D9" transform="translate(162,210)"/>
<path d="M0 0 C0.66 0 1.32 0 2 0 C1.71682074 1.60568666 1.42312209 3.20952047 1.125 4.8125 C0.96257812 5.70582031 0.80015625 6.59914062 0.6328125 7.51953125 C0 10 0 10 -2 13 C-2.16682272 8.07872966 -2.24828052 4.49656104 0 0 Z " fill="#2A3649" transform="translate(119,162)"/>
<path d="M0 0 C0.66 0.33 1.32 0.66 2 1 C1.34 5.95 0.68 10.9 0 16 C-0.33 16 -0.66 16 -1 16 C-1 12.7 -1 9.4 -1 6 C-1.66 5.67 -2.32 5.34 -3 5 C-2.01 3.35 -1.02 1.7 0 0 Z " fill="#B2B8BE" transform="translate(196,331)"/>
<path d="M0 0 C0.99 0.33 1.98 0.66 3 1 C2.34 2.98 1.68 4.96 1 7 C-2 7 -2 7 -4 6 C-2.68 4.02 -1.36 2.04 0 0 Z " fill="#DCDFE2" transform="translate(147,293)"/>
<path d="M0 0 C1.7492214 -0.08142927 3.49954542 -0.13938541 5.25 -0.1875 C6.22453125 -0.22230469 7.1990625 -0.25710938 8.203125 -0.29296875 C11.37468742 0.03924798 12.67040307 0.88672279 15 3 C12.69 3 10.38 3 8 3 C8 2.34 8 1.68 8 1 C5.36 1 2.72 1 0 1 C0 0.67 0 0.34 0 0 Z " fill="#50596A" transform="translate(184,304)"/>
<path d="M0 0 C0.66 0 1.32 0 2 0 C1.71517632 1.41805831 1.42181856 2.83440379 1.125 4.25 C0.88136719 5.43335938 0.88136719 5.43335938 0.6328125 6.640625 C0.00849925 8.96831144 -0.84838542 10.89031952 -2 13 C-2.19294408 8.17639811 -1.75747614 4.50353262 0 0 Z " fill="#253144" transform="translate(450,293)"/>
<path d="M0 0 C0.66 0.33 1.32 0.66 2 1 C0.02 3.31 -1.96 5.62 -4 8 C-4.99 7.67 -5.98 7.34 -7 7 C-4.69 4.69 -2.38 2.38 0 0 Z " fill="#D7D9DC" transform="translate(125,268)"/>
<path d="M0 0 C0.66 0.33 1.32 0.66 2 1 C-2.71570796 5.94026549 -2.71570796 5.94026549 -6.6875 6.125 C-7.8321875 6.063125 -7.8321875 6.063125 -9 6 C-6.12050853 3.76039553 -3.23257974 1.70135776 0 0 Z " fill="#C4C7CB" transform="translate(344,430)"/>
<path d="M0 0 C3.59905908 0.55550695 4.99909799 1.74887248 7.25 4.5625 C8.03117187 5.52349609 8.03117187 5.52349609 8.828125 6.50390625 C9.21484375 6.99761719 9.6015625 7.49132812 10 8 C9.01 8 8.02 8 7 8 C5 5.6875 5 5.6875 3 3 C2.01769502 1.9826127 1.02530403 0.97403883 0 0 Z " fill="#1D2A40" transform="translate(104,261)"/>
<path d="M0 0 C3.7952131 1.49097658 5.61042731 3.75700849 8 7 C5 7 5 7 2.3125 4.625 C0 2 0 2 0 0 Z " fill="#1E2B43" transform="translate(314,242)"/>
<path d="M0 0 C-1.625 1.625 -1.625 1.625 -4 3 C-7.25 2.1875 -7.25 2.1875 -10 1 C-10 0.67 -10 0.34 -10 0 C-6.33694766 -0.74926071 -3.57644848 -1.2380014 0 0 Z " fill="#394052" transform="translate(179,160)"/>
<path d="M0 0 C4.29 0.33 8.58 0.66 13 1 C13 1.33 13 1.66 13 2 C11.20909747 2.19466332 9.41723495 2.38051213 7.625 2.5625 C6.12839844 2.71912109 6.12839844 2.71912109 4.6015625 2.87890625 C2 3 2 3 0 2 C0 1.34 0 0.68 0 0 Z " fill="#3D4656" transform="translate(158,215)"/>
<path d="M0 0 C1.13643966 3.40931897 0.86747764 4.00335456 -0.4375 7.1875 C-0.86869141 8.26064453 -0.86869141 8.26064453 -1.30859375 9.35546875 C-1.53675781 9.89816406 -1.76492187 10.44085938 -2 11 C-2.33 11 -2.66 11 -3 11 C-2.67 8.03 -2.34 5.06 -2 2 C-1.34 2 -0.68 2 0 2 C0 1.34 0 0.68 0 0 Z " fill="#2F394C" transform="translate(109,195)"/>
<path d="M0 0 C3.26460973 1.80412643 4.88929795 2.83394693 7 6 C3.47190093 6 2.53184488 5.35723489 0 3 C0 2.01 0 1.02 0 0 Z " fill="#242F45" transform="translate(275,206)"/>
<path d="M0 0 C4.455 0.99 4.455 0.99 9 2 C5 4 5 4 2.25 3.125 C1.5075 2.75375 0.765 2.3825 0 2 C0 1.34 0 0.68 0 0 Z " fill="#2D384C" transform="translate(288,152)"/>
<path d="M0 0 C2.64 0.33 5.28 0.66 8 1 C8 1.66 8 2.32 8 3 C5.36 2.67 2.72 2.34 0 2 C0 1.34 0 0.68 0 0 Z " fill="#3C4657" transform="translate(275,30)"/>
<path d="M0 0 C3.55780196 0.60990891 6.6828589 1.5783681 10 3 C10 3.33 10 3.66 10 4 C4.25 4.125 4.25 4.125 2 3 C2 2.34 2 1.68 2 1 C1.34 0.67 0.68 0.34 0 0 Z " fill="#40495B" transform="translate(313,21)"/>
</svg>
